<svg width="48" height="48" viewBox="0 0 48 48" fill="none" xmlns="http://www.w3.org/2000/svg">
<circle cx="24" cy="24" r="23" fill="url(#paint0_linear)"/>
<circle cx="24" cy="24" r="22" fill="url(#paint1_linear)"/>
<path d="M26.125 7.94916C26.125 7.94916 27.1733 11.7033 27.1733 14.7492C27.1733 17.6675 25.2608 20.0333 22.3425 20.0333C19.41 20.0333 17.2 17.6675 17.2 14.7492L17.2425 14.2392C14.3808 17.6392 12.6667 22.045 12.6667 26.8333C12.6667 33.095 17.7383 38.1667 24 38.1667C30.2617 38.1667 35.3333 33.095 35.3333 26.8333C35.3333 19.1975 31.6642 12.3833 26.125 7.94916ZM23.5892 33.9167C21.0675 33.9167 19.0275 31.9333 19.0275 29.4683C19.0275 27.1733 20.515 25.5583 23.0083 25.0483C25.5158 24.5383 28.1083 23.3342 29.5533 21.3933C30.1058 23.2208 30.3892 25.1475 30.3892 27.1167C30.3892 30.8708 27.3433 33.9167 23.5892 33.9167Z" fill="url(#paint2_radial)"/>
<defs>
<linearGradient id="paint0_linear" x1="24" y1="1" x2="24" y2="47" gradientUnits="userSpaceOnUse">
<stop offset="0.4375" stop-color="#E32B93"/>
<stop offset="1" stop-color="#6705F3"/>
</linearGradient>
<linearGradient id="paint1_linear" x1="24" y1="32.9048" x2="24" y2="46" gradientUnits="userSpaceOnUse">
<stop stop-color="white"/>
<stop offset="1" stop-color="#7BFFF7"/>
</linearGradient>
<radialGradient id="paint2_radial" cx="0" cy="0" r="1" gradientUnits="userSpaceOnUse" gradientTransform="translate(24 23.0579) rotate(90) scale(15.1087 11.3333)">
<stop offset="0.4375" stop-color="#E32B93"/>
<stop offset="1" stop-color="#6705F3"/>
</radialGradient>
</defs>
</svg>
