<svg width="48" height="48" viewBox="0 0 48 48" fill="none" xmlns="http://www.w3.org/2000/svg">
<circle cx="24" cy="24" r="23" fill="url(#paint0_linear)"/>
<path d="M26.25 7.005C26.25 7.005 27.36 10.98 27.36 14.205C27.36 17.295 25.335 19.8 22.245 19.8C19.14 19.8 16.8 17.295 16.8 14.205L16.845 13.665C13.815 17.265 12 21.93 12 27C12 33.63 17.37 39 24 39C30.63 39 36 33.63 36 27C36 18.915 32.115 11.7 26.25 7.005ZM23.565 34.5C20.895 34.5 18.735 32.4 18.735 29.79C18.735 27.36 20.31 25.65 22.95 25.11C25.605 24.57 28.35 23.295 29.88 21.24C30.465 23.175 30.765 25.215 30.765 27.3C30.765 31.275 27.54 34.5 23.565 34.5Z" fill="url(#paint1_radial)"/>
<defs>
<linearGradient id="paint0_linear" x1="24" y1="33.3095" x2="24" y2="47" gradientUnits="userSpaceOnUse">
<stop stop-color="white"/>
<stop offset="1" stop-color="#7BFFF7"/>
</linearGradient>
<radialGradient id="paint1_radial" cx="0" cy="0" r="1" gradientUnits="userSpaceOnUse" gradientTransform="translate(24 23.0025) rotate(90) scale(15.9975 12)">
<stop offset="0.4375" stop-color="#E32B93"/>
<stop offset="1" stop-color="#6705F3"/>
</radialGradient>
</defs>
</svg>
