<svg width="16" height="16" viewBox="0 0 16 16" fill="none" xmlns="http://www.w3.org/2000/svg">
<path fill-rule="evenodd" clip-rule="evenodd" d="M6 12.5C9.03757 12.5 11.5 10.0376 11.5 7C11.5 3.96243 9.03757 1.5 6 1.5C2.96243 1.5 0.5 3.96243 0.5 7C0.5 10.0376 2.96243 12.5 6 12.5ZM6.79329 4.68729C6.79329 3.92583 6.53121 2.98729 6.53121 2.98729C7.916 4.09583 8.83329 5.79937 8.83329 7.70833C8.83329 9.27375 7.56537 10.5417 5.99996 10.5417C4.43454 10.5417 3.16662 9.27375 3.16662 7.70833C3.16662 6.51125 3.59516 5.40979 4.31058 4.55979L4.29996 4.68729C4.29996 5.41687 4.85246 6.00833 5.58558 6.00833C6.31516 6.00833 6.79329 5.41687 6.79329 4.68729ZM4.75683 8.36708C4.75683 8.98333 5.26683 9.47916 5.89725 9.47916C6.83579 9.47916 7.59725 8.71771 7.59725 7.77916C7.59725 7.28687 7.52641 6.80521 7.38829 6.34833C7.02704 6.83354 6.37891 7.13458 5.75204 7.26208C5.12871 7.38958 4.75683 7.79333 4.75683 8.36708Z" fill="#AFB1B3"/>
<path fill-rule="evenodd" clip-rule="evenodd" d="M9 7L16 11.5L9 16V7Z" fill="#499C54"/>
</svg>
